<svg xmlns="http://www.w3.org/2000/svg" xmlns:xlink="http://www.w3.org/1999/xlink" width="5000" zoomAndPan="magnify" viewBox="0 0 3750 3749.999967" height="5000" preserveAspectRatio="xMidYMid meet" version="1.0"><defs><clipPath id="7e012eb1d7"><path d="M 1485 1987.5 L 1710 1987.5 L 1710 2212.5 L 1485 2212.5 Z M 1485 1987.5 " clip-rule="nonzero"/></clipPath><clipPath id="9816412d4f"><path d="M 1597.5 1987.5 C 1535.367188 1987.5 1485 2037.867188 1485 2100 C 1485 2162.132812 1535.367188 2212.5 1597.5 2212.5 C 1659.632812 2212.5 1710 2162.132812 1710 2100 C 1710 2037.867188 1659.632812 1987.5 1597.5 1987.5 Z M 1597.5 1987.5 " clip-rule="nonzero"/></clipPath><clipPath id="c6991b4500"><path d="M 0 0.5 L 225 0.5 L 225 225.5 L 0 225.5 Z M 0 0.5 " clip-rule="nonzero"/></clipPath><clipPath id="b098b65bbf"><path d="M 112.5 0.5 C 50.367188 0.5 0 50.867188 0 113 C 0 175.132812 50.367188 225.5 112.5 225.5 C 174.632812 225.5 225 175.132812 225 113 C 225 50.867188 174.632812 0.5 112.5 0.5 Z M 112.5 0.5 " clip-rule="nonzero"/></clipPath><clipPath id="8f55e9cc65"><rect x="0" width="225" y="0" height="226"/></clipPath><clipPath id="e7be8bd7bf"><path d="M 184.671875 1381 L 3565.671875 1381 L 3565.671875 2369 L 184.671875 2369 Z M 184.671875 1381 " clip-rule="nonzero"/></clipPath></defs><g clip-path="url(#7e012eb1d7)"><g clip-path="url(#9816412d4f)"><g transform="matrix(1, 0, 0, 1, 1485, 1987)"><g clip-path="url(#8f55e9cc65)"><g clip-path="url(#c6991b4500)"><g clip-path="url(#b098b65bbf)"><path fill="#222222" d="M 0 0.5 L 225 0.5 L 225 225.5 L 0 225.5 Z M 0 0.5 " fill-opacity="1" fill-rule="nonzero"/></g></g></g></g></g></g><g clip-path="url(#e7be8bd7bf)"><path fill="#000000" d="M 897.078125 2222.519531 C 948.410156 2229.484375 999.574219 2237.667969 1050.917969 2244.601562 C 1057.773438 2244.921875 1063.640625 2248.535156 1069.6875 2251.398438 C 1116.5 2252.148438 1163.285156 2249.273438 1210.125 2248.785156 C 1369.496094 2245.839844 1528.84375 2241.503906 1688.214844 2238.875 C 1714.367188 2238.488281 1740.464844 2236.304688 1766.644531 2236.238281 C 1805.65625 2235.527344 1844.726562 2235.984375 1883.667969 2233.539062 C 1947.554688 2233.316406 2011.316406 2229.800781 2075.171875 2229.175781 C 2215.359375 2226.773438 2355.476562 2222.160156 2495.648438 2220.574219 C 2520.96875 2287.542969 2579.386719 2340.492188 2648.265625 2359.878906 C 2725.941406 2382.933594 2814.855469 2358.960938 2871.300781 2301.148438 C 2907.3125 2265.960938 2929.765625 2218.199219 2937.078125 2168.640625 C 2961.257812 2167.597656 2985.324219 2164.832031 3009.363281 2162.066406 C 3019.191406 2160.804688 3028.535156 2165.972656 3038.476562 2165.027344 C 3073.289062 2164.207031 3107.9375 2160.609375 3142.652344 2158.039062 C 3234.386719 2150.03125 3326.035156 2140.484375 3417.226562 2127.769531 C 3452.488281 2121.878906 3488.328125 2123.960938 3523.824219 2120.933594 C 3537.421875 2119.113281 3554.371094 2117.554688 3562.015625 2104.324219 C 3569.078125 2092.707031 3564.6875 2078.769531 3559.613281 2067.316406 C 3547.085938 2040.550781 3526.132812 2019.082031 3505.582031 1998.417969 C 3500.246094 1986.964844 3504.472656 1973.429688 3505.027344 1961.242188 C 3505.875 1950.222656 3509.710938 1934.351562 3497.214844 1928.332031 C 3479.808594 1921.050781 3460.398438 1925.859375 3442.140625 1924.566406 C 3441.710938 1919.71875 3439.738281 1914.253906 3442.992188 1909.890625 C 3453.335938 1892.019531 3482.378906 1899.550781 3491 1880.136719 C 3494.128906 1865.796875 3494.292969 1848.703125 3485.535156 1836.277344 C 3472.0625 1826.328125 3453.945312 1827.925781 3438.957031 1821.617188 C 3436.875 1818.589844 3435.273438 1815.335938 3434.230469 1811.863281 C 3421.636719 1774.855469 3412.792969 1736.484375 3396.957031 1700.683594 C 3391.742188 1687.316406 3377.828125 1680.324219 3364.089844 1679.894531 C 3319.558594 1677.589844 3274.929688 1678.867188 3230.394531 1678.601562 C 3180.550781 1677.78125 3130.710938 1681.078125 3080.90625 1679.351562 C 2979.011719 1671.347656 2877.085938 1663.386719 2774.9375 1659.605469 C 2767.527344 1659.285156 2759.128906 1659.605469 2753.472656 1653.976562 C 2726.636719 1631.128906 2701.488281 1606.351562 2674.152344 1584.101562 C 2627.925781 1546.289062 2580.695312 1509.546875 2530.949219 1476.441406 C 2487.03125 1449.023438 2437.367188 1432.375 2387.382812 1420.019531 C 2308.441406 1401.132812 2227.371094 1393.324219 2146.523438 1388.03125 C 1985.261719 1378.855469 1823.578125 1379.800781 1662.191406 1385.027344 C 1592.894531 1387.960938 1523.476562 1390.726562 1454.503906 1398.492188 C 1428.933594 1402.136719 1401.28125 1405.191406 1380.566406 1422.132812 C 1353.398438 1443.660156 1328.898438 1468.285156 1303.164062 1491.394531 C 1254.140625 1537.769531 1204.980469 1583.976562 1155.832031 1630.1875 C 1142.234375 1642.636719 1129.375 1656.007812 1114.582031 1667.027344 C 1110.453125 1670.695312 1104.585938 1669.652344 1099.578125 1670.179688 C 1034.414062 1672.292969 969.390625 1677.101562 904.292969 1680.519531 C 816.382812 1685.941406 728.460938 1690.761719 640.617188 1696.710938 C 581.085938 1700.28125 521.59375 1705.464844 462.058594 1708.382812 C 471.972656 1701.269531 486.292969 1702.242188 494.746094 1693.238281 C 452.6875 1692.777344 410.421875 1692.820312 368.558594 1696.851562 C 374.539062 1706.078125 383.199219 1713.066406 390.21875 1721.433594 C 376.664062 1731.660156 359.453125 1734.832031 345.007812 1743.503906 C 340.90625 1745.683594 337.066406 1748.964844 332.117188 1748.742188 C 299.460938 1750.980469 266.273438 1751.4375 234.558594 1760.386719 C 227.984375 1762.109375 220.890625 1765.515625 219.070312 1772.671875 C 211.300781 1800.382812 221.351562 1829.21875 234.199219 1853.707031 C 237.980469 1876.996094 237.296875 1902.054688 249.617188 1923.066406 C 255.316406 1933.40625 267.800781 1936.40625 275.546875 1944.789062 C 268.71875 1950.636719 259.90625 1955.460938 256.972656 1964.550781 C 254.105469 1973.136719 255.082031 1982.351562 254.832031 1991.257812 C 234.101562 1993.59375 211.175781 1992.71875 193.042969 2004.390625 C 182.449219 2021.109375 184.328125 2043.027344 185.757812 2062.023438 C 186.371094 2079.867188 206.613281 2083.410156 219.820312 2088.773438 C 206.03125 2108.382812 191.804688 2128.742188 186.507812 2152.507812 C 183.742188 2164.734375 186.578125 2179.007812 197.046875 2186.875 C 210.519531 2196.671875 228.011719 2197.519531 244.097656 2197.964844 C 275.519531 2199.699219 306.980469 2199.101562 338.429688 2199.296875 C 354.53125 2199.046875 371.839844 2199.367188 386.257812 2191.070312 C 394.003906 2186.914062 398.8125 2179.175781 405.777344 2174.074219 C 423.367188 2174.394531 441.007812 2175.171875 458.472656 2177.257812 C 470.679688 2262.972656 538.304688 2335.90625 621 2359.183594 C 673.320312 2374.804688 730.933594 2369.730469 780.277344 2346.828125 C 833.5 2322.773438 875.765625 2276.664062 897.078125 2222.519531 Z M 2642.21875 2098.390625 C 2629.355469 2120.445312 2627.144531 2148.769531 2638.214844 2171.992188 C 2652.421875 2203.59375 2689.085938 2223.660156 2723.371094 2217.324219 C 2753.472656 2212.542969 2779.136719 2188.707031 2786.589844 2159.273438 C 2795.015625 2128.964844 2782.417969 2094.820312 2757.699219 2075.890625 C 2740.195312 2062.46875 2717.003906 2056.882812 2695.273438 2060.746094 C 2673.542969 2065.332031 2653.019531 2078.699219 2642.21875 2098.390625 Z M 728.488281 2039.773438 C 765.121094 2055.714844 791.007812 2093.359375 792.484375 2133.328125 C 795.570312 2181.578125 762.773438 2229.386719 716.125 2242.808594 C 676.335938 2256.886719 629.691406 2242.546875 602.648438 2210.75 C 582.292969 2187.011719 572.074219 2154.398438 576.859375 2123.335938 C 581.90625 2081.660156 614.589844 2045.207031 655.105469 2034.5625 C 679.199219 2027.765625 705.519531 2029.949219 728.488281 2039.773438 Z M 794.761719 2196.726562 C 822.902344 2144.515625 806.886719 2073.097656 758.03125 2039.023438 C 728.195312 2016.578125 688.152344 2009.199219 652.074219 2018.46875 C 612.910156 2028.558594 579.652344 2059.046875 566.417969 2097.265625 C 547.839844 2147.335938 566.511719 2208.246094 609.78125 2239.460938 C 636.320312 2258.707031 670.578125 2268.339844 703.113281 2262.195312 C 741.640625 2256.277344 776.898438 2231.398438 794.761719 2196.726562 Z M 761.867188 2153.0625 C 767.917969 2121.808594 752.957031 2087.773438 725.523438 2071.445312 C 705.683594 2059.382812 680.5625 2057.074219 658.609375 2064.316406 C 630.246094 2073.558594 608.320312 2100.15625 605.554688 2129.980469 C 599.101562 2172.546875 634.042969 2215.097656 676.726562 2218.449219 C 716.445312 2222.492188 755.042969 2192.085938 761.867188 2153.0625 Z M 648.847656 1999.222656 C 718.046875 1980.753906 797.390625 2022.570312 819.441406 2091.011719 C 834.347656 2130.035156 828.394531 2174.8125 808.75 2211.070312 C 788.507812 2246.8125 752.234375 2272.925781 711.96875 2280.886719 C 671.621094 2290.28125 627.742188 2278.871094 595.722656 2252.980469 C 561.535156 2226.257812 540.027344 2183.59375 540.417969 2140.082031 C 538.929688 2075.835938 586.519531 2014.410156 648.847656 1999.222656 Z M 1213.792969 1895.300781 C 940.429688 1894.160156 666.980469 1895.980469 393.640625 1889.964844 C 380.820312 1888.144531 366.347656 1891.035156 354.863281 1884.042969 C 372.492188 1877.929688 391.429688 1879.066406 409.808594 1878.21875 C 573.578125 1875.300781 737.371094 1874.289062 901.191406 1873.828125 C 1005.441406 1873.773438 1109.671875 1872.175781 1213.933594 1872.925781 C 1214.003906 1880.375 1213.960938 1887.824219 1213.792969 1895.300781 Z M 1295.296875 1649.503906 C 1282.726562 1665.207031 1268.101562 1684.132812 1245.910156 1684.160156 C 1208.050781 1684.035156 1170.304688 1675.546875 1135.199219 1661.46875 C 1178.535156 1619.191406 1223.597656 1578.710938 1267.085938 1536.628906 C 1303.429688 1502.289062 1339.898438 1468.089844 1377.019531 1434.625 C 1384.984375 1436.542969 1390.519531 1444.671875 1396.039062 1450.523438 C 1412.472656 1470.6875 1408.371094 1500.539062 1393.605469 1520.46875 C 1362.574219 1564.757812 1328.273438 1606.671875 1295.296875 1649.503906 Z M 2007.8125 1896.757812 C 1747.804688 1897.148438 1487.8125 1895.882812 1227.851562 1894.964844 C 1227.851562 1887.515625 1227.851562 1880.109375 1227.824219 1872.703125 C 1487.621094 1872.148438 1747.417969 1871.492188 2007.214844 1871.492188 C 2007.964844 1879.886719 2007.964844 1888.308594 2007.8125 1896.757812 Z M 1496.726562 1690.886719 C 1446.046875 1690.664062 1395.328125 1690.375 1344.652344 1688.679688 C 1346.167969 1684.84375 1348.15625 1681.300781 1350.628906 1678.019531 C 1389.210938 1628.074219 1427.765625 1578.128906 1467.808594 1529.308594 C 1479.484375 1515.589844 1489.636719 1500.109375 1504.46875 1489.449219 C 1502.914062 1556.628906 1498.976562 1623.738281 1496.726562 1690.886719 Z M 1512.964844 1706.050781 C 1516.898438 1629.144531 1518.625 1552.140625 1521.488281 1475.179688 C 1609.675781 1474.191406 1697.878906 1471.882812 1786.109375 1472.539062 C 1853.609375 1471.953125 1921.011719 1474.84375 1988.484375 1475.957031 C 1988 1555.976562 1986.984375 1635.96875 1985.84375 1715.957031 C 1922.472656 1713.597656 1859.074219 1712.386719 1795.660156 1711.441406 C 1701.453125 1708.132812 1607.175781 1707.996094 1512.964844 1706.050781 Z M 2025.105469 1715.957031 C 2026.414062 1636.523438 2028.664062 1557.085938 2029.207031 1477.652344 C 2096.359375 1481.445312 2163.902344 1489.449219 2228.082031 1510.421875 C 2283.777344 1528.765625 2335.207031 1559.949219 2376.582031 1601.570312 C 2399.8125 1624.722656 2422.753906 1648.917969 2440.453125 1676.558594 C 2398.839844 1677.5625 2357.296875 1679.699219 2315.851562 1683.4375 C 2284.722656 1686.898438 2252.703125 1691.277344 2224.660156 1706.105469 C 2216.761719 1709.914062 2210.355469 1716.292969 2202.386719 1719.863281 C 2143.296875 1718.308594 2084.222656 1715.609375 2025.105469 1715.957031 Z M 1941.796875 1778.007812 C 1919.289062 1776.1875 1896.710938 1776.1875 1874.199219 1774.5625 C 1868.570312 1773.546875 1861.214844 1774.757812 1857.738281 1769.128906 C 1870.53125 1762.042969 1885.515625 1762.332031 1899.726562 1761.554688 C 1922.417969 1760.929688 1945.148438 1760.21875 1967.851562 1761.457031 C 1975.277344 1761.972656 1985.007812 1764.585938 1987.179688 1772.769531 C 1987.859375 1784.414062 1975.792969 1793.15625 1964.933594 1792.90625 C 1954.003906 1794.074219 1951.949219 1778.59375 1941.796875 1778.007812 Z M 2499.011719 1579.851562 C 2492.730469 1572.886719 2482.121094 1565.5625 2486.515625 1554.78125 C 2495.984375 1528.722656 2511.5 1505.375 2522.691406 1480.082031 C 2597.867188 1533.253906 2671.984375 1588.59375 2738.539062 1652.394531 C 2702.238281 1669.238281 2661.765625 1675.476562 2621.972656 1675.574219 C 2607.863281 1675.867188 2594.683594 1669.5 2584.5625 1659.996094 C 2555.710938 1633.660156 2527.335938 1606.769531 2499.011719 1579.851562 Z M 2019.199219 1896.660156 C 2019.03125 1888.433594 2018.960938 1880.25 2019.03125 1872.050781 C 2172.257812 1871.300781 2325.488281 1872.273438 2478.714844 1872.246094 C 2718.464844 1872.175781 2958.226562 1873.648438 3197.988281 1877.246094 C 3231.078125 1877.777344 3264.222656 1878.261719 3297.3125 1879.527344 C 3304.988281 1880.5 3313.316406 1879.984375 3320.378906 1883.820312 C 3319.335938 1890.6875 3309.117188 1888.074219 3304.070312 1889.574219 C 3216.632812 1892.605469 3129.109375 1893.480469 3041.644531 1893.675781 C 2700.832031 1895.328125 2359.996094 1897.050781 2019.199219 1896.660156 Z M 2282.179688 2060.160156 C 2255.246094 2027.476562 2227.105469 1995.804688 2200.816406 1962.644531 C 2198.339844 1960.226562 2198.1875 1953.277344 2202.679688 1953.179688 C 2221.378906 1952.234375 2240.191406 1952.304688 2258.917969 1952.890625 C 2288.265625 1988.492188 2320.757812 2021.359375 2351.734375 2055.546875 C 2382.449219 2089.136719 2415.105469 2121.058594 2443.902344 2156.382812 C 2441.328125 2163.011719 2440.773438 2172.601562 2433.78125 2176.144531 C 2416.246094 2176.769531 2398.644531 2176.074219 2381.113281 2176.1875 C 2347.246094 2138.289062 2315.460938 2098.558594 2282.179688 2060.160156 Z M 279.230469 1958.015625 C 283.777344 1973.859375 284.304688 1990.535156 289.308594 2006.210938 C 290.546875 2012.6875 297.695312 2013.203125 302.976562 2013.855469 C 329.976562 2015.871094 357.269531 2014.871094 384.003906 2019.777344 C 396.558594 2022.347656 410.851562 2026.933594 417.359375 2038.996094 C 420.5 2049.625 408.351562 2055.214844 399.882812 2056.617188 C 368.683594 2061.132812 337.09375 2057.269531 305.730469 2058.203125 C 293.996094 2057.660156 280.007812 2060.425781 270.734375 2051.308594 C 263.964844 2044.847656 264.199219 2034.964844 263.839844 2026.335938 C 263.839844 2008.714844 263.089844 1991.023438 264.839844 1973.429688 C 265.394531 1965.6875 271.292969 1958.671875 279.230469 1958.019531 Z M 3351.242188 2016.746094 C 3363.410156 2007.976562 3379.132812 2007.9375 3393.535156 2007.324219 C 3419.398438 2006.601562 3445.296875 2007.546875 3471.160156 2006.726562 C 3482.113281 2006.238281 3495.265625 2004.292969 3503.691406 2013.132812 C 3523.308594 2031.742188 3542.300781 2052.324219 3552.785156 2077.65625 C 3556.261719 2086.105469 3556.816406 2097.820312 3548.558594 2103.699219 C 3538.117188 2110.175781 3525.285156 2110.371094 3513.480469 2111.761719 C 3481.988281 2113.621094 3450.429688 2113.457031 3418.9375 2113.09375 C 3401.960938 2113.039062 3383.945312 2108.648438 3372.097656 2095.738281 C 3359.933594 2082.242188 3350.144531 2066.429688 3343.832031 2049.390625 C 3339.507812 2038.316406 3341.261719 2024.195312 3351.242188 2016.746094 Z M 2576.328125 2191.890625 C 2566.472656 2168.210938 2565.304688 2141.945312 2568.390625 2116.777344 C 2571.882812 2093 2583.074219 2071.277344 2595.726562 2051.15625 C 2604.277344 2051.015625 2612.839844 2050.765625 2621.460938 2050.628906 C 2603.203125 2069.75 2590.457031 2094.179688 2586.9375 2120.472656 C 2581.085938 2155.3125 2591.957031 2192.015625 2614.273438 2219.171875 C 2637.65625 2247.074219 2673.667969 2263.585938 2710.011719 2264.015625 C 2741.597656 2263.238281 2773.3125 2251.496094 2796.222656 2229.34375 C 2820.320312 2206.289062 2834.765625 2173.378906 2834.902344 2139.984375 C 2835.390625 2107.117188 2822.113281 2074.378906 2798.683594 2051.253906 C 2807.152344 2051.351562 2815.605469 2051.28125 2824.101562 2050.960938 C 2845.691406 2081.105469 2858.039062 2119.042969 2852.65625 2156.246094 C 2848.5 2191.238281 2831.316406 2224.632812 2804.675781 2247.828125 C 2773.160156 2275.886719 2728.515625 2289.378906 2686.820312 2281.734375 C 2637.558594 2274.21875 2594.070312 2238.292969 2576.332031 2191.890625 Z M 2605.25 2110.203125 C 2611.601562 2086.953125 2625.492188 2065.859375 2644.066406 2050.503906 C 2687.625 2051.449219 2731.226562 2051.449219 2774.785156 2050.472656 C 2795.085938 2065.984375 2810.433594 2088.359375 2815.925781 2113.457031 C 2824.226562 2149.03125 2813.492188 2188.5 2788.019531 2214.75 C 2755.558594 2248.367188 2700.417969 2258.359375 2659.261719 2235.109375 C 2614.953125 2212.765625 2591.597656 2157.675781 2605.25 2110.203125 Z M 2605.25 2110.203125 " fill-opacity="1" fill-rule="evenodd"/></g></svg>